<svg width="24" height="24" viewBox="0 0 24 24" fill="none" xmlns="http://www.w3.org/2000/svg">
<path fill-rule="evenodd" clip-rule="evenodd" d="M3.3335 2.66667C3.3335 2.29848 3.63197 2 4.00016 2H20.0002C20.3684 2 20.6668 2.29848 20.6668 2.66667V21.3333C20.6668 21.5644 20.5472 21.779 20.3506 21.9004C20.1541 22.0219 19.9087 22.0329 19.702 21.9296L17.3335 20.7454L14.965 21.9296C14.7773 22.0235 14.5564 22.0235 14.3687 21.9296L12.0002 20.7454L9.63164 21.9296C9.44395 22.0235 9.22304 22.0235 9.03535 21.9296L6.66683 20.7454L4.29831 21.9296C4.09165 22.0329 3.84622 22.0219 3.64968 21.9004C3.45313 21.779 3.3335 21.5644 3.3335 21.3333V2.66667ZM7.3335 8.66667H10.0002V7.33333H7.3335V8.66667ZM12.6668 8.66667H16.6668V7.33333H12.6668V8.66667ZM10.0002 12.6667H7.3335V11.3333H10.0002V12.6667ZM12.6668 12.6667H16.6668V11.3333H12.6668V12.6667ZM16.6668 16.6667H12.6668V15.3333H16.6668V16.6667Z" fill="black"/>
</svg>
