<svg width="124" height="37" viewBox="0 0 124 37" fill="none" xmlns="http://www.w3.org/2000/svg">
<path d="M25.8417 36.8941V12.1723H37.978V15.3155H28.8758V23.0146H34.8439V26.1578H28.8758V33.7155H37.978V36.8941H25.8417Z" fill="#57EEAF"/>
<path d="M49.6587 37V34.0334C49.9921 34.0098 50.37 33.9039 50.7923 33.7155C51.2369 33.5036 51.6592 33.2093 52.0593 32.8326C52.4816 32.4559 52.8262 32.0086 53.0929 31.4906C53.3596 30.9726 53.493 30.384 53.493 29.7248C53.493 28.9478 53.2818 28.3003 52.8595 27.7823C52.4594 27.2408 51.9371 26.8052 51.2925 26.4756C50.6701 26.146 50.0144 25.887 49.3253 25.6986C48.6585 25.4867 48.0361 25.3219 47.4582 25.2042C46.8803 25.0629 46.4468 24.9334 46.1579 24.8157C45.4243 24.5567 44.7464 24.18 44.124 23.6856C43.5017 23.1911 43.0015 22.5437 42.6237 21.7432C42.2458 20.9426 42.0569 19.9773 42.0569 18.8472C42.0569 17.6229 42.2791 16.5869 42.7237 15.7393C43.1682 14.8917 43.7128 14.2089 44.3574 13.6909C45.002 13.173 45.6577 12.7962 46.3246 12.5608C46.9914 12.3018 47.5471 12.1723 47.9916 12.1723V15.1742C47.7694 15.1978 47.4804 15.292 47.1248 15.4568C46.7913 15.598 46.4579 15.8217 46.1245 16.1278C45.8133 16.4339 45.5355 16.8224 45.291 17.2932C45.0687 17.7406 44.9576 18.2703 44.9576 18.8825C44.9576 19.5182 45.1132 20.0597 45.4243 20.5071C45.7578 20.9309 46.1912 21.284 46.7247 21.5666C47.2581 21.8256 47.8472 22.061 48.4918 22.2729C49.1364 22.4848 49.781 22.6849 50.4256 22.8733C51.0924 23.0381 51.6925 23.2382 52.226 23.4737C52.9818 23.7798 53.6819 24.1918 54.3265 24.7098C54.9711 25.2042 55.4935 25.8399 55.8936 26.6169C56.2937 27.3938 56.4937 28.3827 56.4937 29.5835C56.4937 30.8784 56.1825 32.091 55.5602 33.2211C54.9378 34.3277 54.1043 35.2342 53.0596 35.9405C52.0371 36.6468 50.9035 37 49.6587 37ZM47.9916 37C47.0581 37 46.2134 36.7999 45.4577 36.3996C44.702 35.9994 44.0462 35.4932 43.4905 34.881C42.9571 34.2688 42.5348 33.6449 42.2236 33.0092C41.9346 32.3735 41.7901 31.8084 41.7901 31.314L44.5241 30.2898C44.6353 31.0668 44.8798 31.726 45.2576 32.2676C45.6577 32.7855 46.1023 33.1858 46.5913 33.4683C47.0803 33.7509 47.5471 33.9392 47.9916 34.0334V37ZM52.7595 18.3174C52.6483 17.6111 52.4038 17.0343 52.026 16.5869C51.6703 16.1396 51.2813 15.7982 50.859 15.5627C50.4367 15.3273 50.0366 15.1978 49.6587 15.1742V12.1723C50.5478 12.1723 51.348 12.3607 52.0593 12.7374C52.7928 13.1141 53.4041 13.585 53.8931 14.1501C54.4043 14.7151 54.8044 15.292 55.0934 15.8806C55.3823 16.4692 55.5379 16.9636 55.5602 17.3639L52.7595 18.3174Z" fill="#57EEAF"/>
<path d="M70.3041 36.8941L69.5039 33.0092H64.6694L65.3029 29.9013H68.7371L65.0362 12.1723H68.0369L73.3048 36.8941H70.3041ZM59.2014 36.8941L63.6358 16.0218H64.1693L65.3362 21.7785L62.1688 36.8941H59.2014Z" fill="#57EEAF"/>
<path d="M86.9586 36.8941L78.0231 14.1854V12.1723H80.4903L88.0589 31.6672L93.4268 18.8119H93.7602V25.9459L89.1925 36.8941H86.9586ZM78.0231 36.8941V19.3416H78.3232L81.0572 26.299V36.8941H78.0231ZM95.4273 36.8941V12.1723H98.4281V36.8941H95.4273Z" fill="#57EEAF"/>
<path d="M103.706 36.8941V12.1723H115.842V15.3155H106.74V23.0146H112.708V26.1578H106.74V33.7155H115.842V36.8941H103.706Z" fill="#57EEAF"/>
<path d="M14.8686 36.8206V33.854C15.202 33.8304 15.5799 33.7245 16.0022 33.5361C16.4467 33.3242 16.8691 33.0299 17.2692 32.6532C17.6915 32.2765 18.036 31.8291 18.3028 31.3112C18.5695 30.7932 18.7029 30.2046 18.7029 29.5453C18.7029 28.7684 18.4917 28.1209 18.0694 27.6029C17.6693 27.0614 17.1469 26.6258 16.5023 26.2962C15.8799 25.9666 15.2242 25.7076 14.5352 25.5192C13.8683 25.3073 13.246 25.1425 12.6681 25.0248C12.0901 24.8835 11.6567 24.754 11.3677 24.6363C10.6342 24.3773 9.95628 24.0006 9.3339 23.5062C8.71153 23.0117 8.21141 22.3643 7.83354 21.5637C7.45567 20.7632 7.26673 19.7979 7.26673 18.6678C7.26673 17.4435 7.48901 16.4075 7.93356 15.5599C8.37811 14.7123 8.92269 14.0295 9.56729 13.5115C10.2119 12.9935 10.8676 12.6168 11.5344 12.3814C12.2013 12.1224 12.757 11.9929 13.2015 11.9929V14.9948C12.9792 15.0184 12.6903 15.1125 12.3346 15.2774C12.0012 15.4186 11.6678 15.6423 11.3344 15.9484C11.0232 16.2545 10.7454 16.6429 10.5009 17.1138C10.2786 17.5612 10.1674 18.0909 10.1674 18.7031C10.1674 19.3388 10.323 19.8803 10.6342 20.3277C10.9676 20.7515 11.4011 21.1046 11.9345 21.3872C12.468 21.6461 13.057 21.8816 13.7016 22.0935C14.3462 22.3054 14.9908 22.5055 15.6354 22.6939C16.3023 22.8587 16.9024 23.0588 17.4359 23.2943C18.1916 23.6003 18.8918 24.0124 19.5364 24.5303C20.181 25.0248 20.7033 25.6605 21.1034 26.4375C21.5035 27.2144 21.7036 28.2033 21.7036 29.4041C21.7036 30.699 21.3924 31.9116 20.77 33.0417C20.1477 34.1483 19.3141 35.0547 18.2694 35.7611C17.2469 36.4674 16.1133 36.8206 14.8686 36.8206ZM13.2015 36.8206C12.268 36.8206 11.4233 36.6205 10.6676 36.2202C9.91182 35.8199 9.25611 35.3137 8.70042 34.7016C8.16695 34.0894 7.74463 33.4655 7.43344 32.8298C7.14448 32.1941 7 31.629 7 31.1346L9.734 30.1104C9.84514 30.8874 10.0896 31.5466 10.4675 32.0881C10.8676 32.6061 11.3122 33.0064 11.8012 33.2889C12.2902 33.5714 12.757 33.7598 13.2015 33.854V36.8206ZM17.9693 18.138C17.8582 17.4317 17.6137 16.8548 17.2358 16.4075C16.8802 15.9601 16.4912 15.6188 16.0689 15.3833C15.6466 15.1479 15.2465 15.0184 14.8686 14.9948V11.9929C15.7577 11.9929 16.5579 12.1813 17.2692 12.558C18.0027 12.9347 18.6139 13.4056 19.103 13.9706C19.6142 14.5357 20.0143 15.1125 20.3032 15.7012C20.5922 16.2898 20.7478 16.7842 20.77 17.1845L17.9693 18.138Z" fill="#57EEAF"/>
<g filter="url(#filter0_d_1_350)">
<line x1="9.75528" y1="5.5" x2="114.342" y2="5.50001" stroke="#E2F6D7" stroke-width="3" stroke-linecap="round"/>
</g>
<defs>
<filter id="filter0_d_1_350" x="0.25528" y="0" width="123.587" height="19" filterUnits="userSpaceOnUse" color-interpolation-filters="sRGB">
<feFlood flood-opacity="0" result="BackgroundImageFix"/>
<feColorMatrix in="SourceAlpha" type="matrix" values="0 0 0 0 0 0 0 0 0 0 0 0 0 0 0 0 0 0 127 0" result="hardAlpha"/>
<feOffset dy="4"/>
<feGaussianBlur stdDeviation="4"/>
<feColorMatrix type="matrix" values="0 0 0 0 0.995833 0 0 0 0 0.995833 0 0 0 0 0.995833 0 0 0 0.15 0"/>
<feBlend mode="normal" in2="BackgroundImageFix" result="effect1_dropShadow_1_350"/>
<feBlend mode="normal" in="SourceGraphic" in2="effect1_dropShadow_1_350" result="shape"/>
</filter>
</defs>
</svg>
