<svg width="64" height="20" viewBox="0 0 64 20" fill="none" xmlns="http://www.w3.org/2000/svg">
<path d="M16.3093 19.5992V8.64554H21.6615V10.0382H17.6474V13.4495H20.2793V14.8422H17.6474V18.1908H21.6615V19.5992H16.3093Z" fill="#57EEAF"/>
<path d="M26.8128 19.6461V18.3317C26.9598 18.3212 27.1265 18.2743 27.3127 18.1908C27.5088 18.097 27.695 17.9666 27.8714 17.7996C28.0577 17.6327 28.2096 17.4345 28.3273 17.205C28.4449 16.9755 28.5037 16.7147 28.5037 16.4226C28.5037 16.0784 28.4106 15.7915 28.2243 15.562C28.0479 15.322 27.8175 15.129 27.5333 14.983C27.2588 14.8369 26.9696 14.7222 26.6657 14.6387C26.3717 14.5448 26.0972 14.4718 25.8423 14.4197C25.5875 14.3571 25.3963 14.2997 25.2689 14.2475C24.9454 14.1328 24.6464 13.9659 24.3719 13.7468C24.0975 13.5277 23.8769 13.2408 23.7103 12.8862C23.5436 12.5315 23.4603 12.1038 23.4603 11.603C23.4603 11.0606 23.5583 10.6015 23.7544 10.226C23.9504 9.85044 24.1906 9.54791 24.4749 9.3184C24.7591 9.0889 25.0483 8.92199 25.3424 8.81767C25.6365 8.70291 25.8815 8.64554 26.0776 8.64554V9.97562C25.9796 9.98605 25.8521 10.0278 25.6953 10.1008C25.5482 10.1634 25.4012 10.2625 25.2542 10.3981C25.1169 10.5337 24.9944 10.7059 24.8866 10.9145C24.7885 11.1127 24.7395 11.3474 24.7395 11.6187C24.7395 11.9003 24.8081 12.1403 24.9454 12.3385C25.0924 12.5263 25.2836 12.6827 25.5188 12.8079C25.7541 12.9227 26.0139 13.027 26.2981 13.1209C26.5824 13.2148 26.8667 13.3034 27.151 13.3869C27.445 13.4599 27.7097 13.5486 27.945 13.6529C28.2782 13.7885 28.587 13.9711 28.8713 14.2006C29.1556 14.4197 29.3859 14.7013 29.5624 15.0456C29.7388 15.3898 29.8271 15.828 29.8271 16.36C29.8271 16.9338 29.6898 17.471 29.4153 17.9718C29.1409 18.4621 28.7733 18.8637 28.3126 19.1767C27.8616 19.4896 27.3617 19.6461 26.8128 19.6461ZM26.0776 19.6461C25.6659 19.6461 25.2934 19.5574 24.9601 19.3801C24.6268 19.2027 24.3376 18.9785 24.0926 18.7072C23.8573 18.436 23.6711 18.1595 23.5338 17.8779C23.4064 17.5962 23.3427 17.3458 23.3427 17.1268L24.5484 16.673C24.5974 17.0172 24.7052 17.3093 24.8719 17.5493C25.0483 17.7788 25.2444 17.9561 25.46 18.0813C25.6757 18.2065 25.8815 18.2899 26.0776 18.3317V19.6461ZM28.1802 11.3683C28.1312 11.0553 28.0234 10.7998 27.8567 10.6015C27.6999 10.4033 27.5284 10.2521 27.3421 10.1477C27.1559 10.0434 26.9794 9.98605 26.8128 9.97562V8.64554C27.2049 8.64554 27.5578 8.72899 27.8714 8.89591C28.1949 9.06282 28.4645 9.27146 28.6802 9.52183C28.9056 9.7722 29.0821 10.0278 29.2095 10.2886C29.3369 10.5494 29.4055 10.7685 29.4153 10.9458L28.1802 11.3683Z" fill="#57EEAF"/>
<path d="M35.9175 19.5992L35.5646 17.8779H33.4326L33.712 16.5009H35.2264L33.5943 8.64554H34.9177L37.2408 19.5992H35.9175ZM31.0212 19.5992L32.9768 10.3512H33.212L33.7267 12.9018L32.3298 19.5992H31.0212Z" fill="#57EEAF"/>
<path d="M43.2623 19.5992L39.3216 9.53748V8.64554H40.4097L43.7475 17.2833L46.1148 11.5874H46.2618V14.7483L44.2474 19.5992H43.2623ZM39.3216 19.5992V11.8221H39.454L40.6597 14.9048V19.5992H39.3216ZM46.997 19.5992V8.64554H48.3204V19.5992H46.997Z" fill="#57EEAF"/>
<path d="M50.6478 19.5992V8.64554H56V10.0382H51.9859V13.4495H54.6178V14.8422H51.9859V18.1908H56V19.5992H50.6478Z" fill="#57EEAF"/>
<path d="M11.4701 19.5666V18.2522C11.6171 18.2417 11.7838 18.1948 11.97 18.1113C12.1661 18.0175 12.3523 17.8871 12.5288 17.7201C12.715 17.5532 12.867 17.355 12.9846 17.1255C13.1022 16.896 13.161 16.6352 13.161 16.3431C13.161 15.9989 13.0679 15.712 12.8817 15.4825C12.7052 15.2425 12.4749 15.0495 12.1906 14.9035C11.9161 14.7574 11.6269 14.6427 11.3231 14.5592C11.029 14.4654 10.7545 14.3923 10.4996 14.3402C10.2448 14.2776 10.0536 14.2202 9.9262 14.168C9.60272 14.0533 9.30374 13.8864 9.02927 13.6673C8.7548 13.4482 8.53424 13.1613 8.3676 12.8067C8.20095 12.452 8.11763 12.0243 8.11763 11.5235C8.11763 10.9811 8.21566 10.522 8.41171 10.1465C8.60776 9.77094 8.84792 9.46841 9.13219 9.23891C9.41647 9.0094 9.70564 8.84249 9.99972 8.73817C10.2938 8.62342 10.5389 8.56604 10.7349 8.56604V9.89612C10.6369 9.90656 10.5095 9.94828 10.3526 10.0213C10.2056 10.0839 10.0585 10.183 9.91149 10.3186C9.77426 10.4542 9.65173 10.6264 9.5439 10.835C9.44587 11.0332 9.39686 11.2679 9.39686 11.5392C9.39686 11.8208 9.46548 12.0608 9.60272 12.259C9.74975 12.4468 9.9409 12.6032 10.1762 12.7284C10.4114 12.8432 10.6712 12.9475 10.9555 13.0414C11.2397 13.1353 11.524 13.2239 11.8083 13.3074C12.1024 13.3804 12.367 13.4691 12.6023 13.5734C12.9356 13.709 13.2444 13.8916 13.5286 14.1211C13.8129 14.3402 14.0433 14.6218 14.2197 14.9661C14.3962 15.3103 14.4844 15.7485 14.4844 16.2805C14.4844 16.8543 14.3471 17.3915 14.0727 17.8923C13.7982 18.3826 13.4306 18.7842 12.9699 19.0972C12.519 19.4101 12.019 19.5666 11.4701 19.5666ZM10.7349 19.5666C10.3232 19.5666 9.95071 19.4779 9.61742 19.3006C9.28413 19.1233 8.99496 18.899 8.7499 18.6277C8.51463 18.3565 8.32839 18.08 8.19115 17.7984C8.06372 17.5167 8 17.2664 8 17.0473L9.20571 16.5935C9.25472 16.9377 9.36255 17.2298 9.5292 17.4698C9.70564 17.6993 9.90169 17.8766 10.1173 18.0018C10.333 18.127 10.5389 18.2104 10.7349 18.2522V19.5666ZM12.8376 11.2888C12.7885 10.9758 12.6807 10.7203 12.5141 10.522C12.3572 10.3238 12.1857 10.1726 11.9994 10.0683C11.8132 9.96393 11.6367 9.90656 11.4701 9.89612V8.56604C11.8622 8.56604 12.2151 8.6495 12.5288 8.81641C12.8523 8.98332 13.1218 9.19196 13.3375 9.44233C13.5629 9.6927 13.7394 9.94828 13.8668 10.2091C13.9943 10.4699 14.0629 10.689 14.0727 10.8663L12.8376 11.2888Z" fill="#57EEAF"/>
<g filter="url(#filter0_d_38_409)">
<line x1="9.55359" y1="5.35382" x2="55" y2="5.35383" stroke="#E2F6D7" stroke-width="2" stroke-linecap="round"/>
</g>
<defs>
<filter id="filter0_d_38_409" x="0.553589" y="0.353821" width="63.4464" height="18" filterUnits="userSpaceOnUse" color-interpolation-filters="sRGB">
<feFlood flood-opacity="0" result="BackgroundImageFix"/>
<feColorMatrix in="SourceAlpha" type="matrix" values="0 0 0 0 0 0 0 0 0 0 0 0 0 0 0 0 0 0 127 0" result="hardAlpha"/>
<feOffset dy="4"/>
<feGaussianBlur stdDeviation="4"/>
<feColorMatrix type="matrix" values="0 0 0 0 0.995833 0 0 0 0 0.995833 0 0 0 0 0.995833 0 0 0 0.15 0"/>
<feBlend mode="normal" in2="BackgroundImageFix" result="effect1_dropShadow_38_409"/>
<feBlend mode="normal" in="SourceGraphic" in2="effect1_dropShadow_38_409" result="shape"/>
</filter>
</defs>
</svg>
